<svg width="100" height="100" viewBox="0 0 100 100" fill="none" xmlns="http://www.w3.org/2000/svg">
<g clip-path="url(#clip0)">
<path d="M90.4943 50.216C91.9943 48.3441 93.6943 46.2225 93.6943 43.6941C93.6943 41.1658 91.9941 39.0441 90.4943 37.1721C89.4469 35.865 88.4574 34.6301 88.1478 33.4717C87.8168 32.233 88.0594 30.6189 88.316 28.9102C88.6826 26.4689 89.0619 23.9447 87.8449 21.8416C86.6088 19.7053 84.2115 18.7693 81.8932 17.8639C80.3023 17.2426 78.7998 16.6557 77.9191 15.7754C77.0385 14.8945 76.4517 13.392 75.8305 11.8012C74.925 9.48281 73.9889 7.08535 71.8525 5.84922C69.7492 4.63242 67.2252 5.01152 64.784 5.37832C63.0748 5.63496 61.4609 5.87773 60.2223 5.54629C59.0637 5.23672 57.8289 4.24746 56.5217 3.1998C54.65 1.7 52.5281 0 50 0C47.4719 0 45.35 1.7 43.4781 3.2C42.1709 4.24746 40.9361 5.23691 39.7775 5.54648C38.5389 5.87773 36.925 5.63516 35.216 5.37852C32.7746 5.01172 30.2506 4.63281 28.1475 5.84961C26.0111 7.08555 25.0752 9.48281 24.1697 11.8012C23.5484 13.392 22.9617 14.8945 22.081 15.7752C21.2004 16.6561 19.6976 17.2428 18.1068 17.8641C15.7885 18.7693 13.3912 19.7057 12.1553 21.8418C10.9385 23.9451 11.3176 26.4691 11.6842 28.9102C11.9408 30.6191 12.1834 32.2334 11.8523 33.4719C11.5428 34.6305 10.5533 35.8652 9.50585 37.1723C8.00585 39.0443 6.30585 41.166 6.30585 43.6943C6.30585 46.2227 8.00585 48.3443 9.50585 50.2162C10.5533 51.5234 11.5428 52.7584 11.8523 53.9168C12.1834 55.1553 11.9408 56.7693 11.6842 58.4783C11.3176 60.9193 10.9383 63.4436 12.1553 65.5467C13.3914 67.683 15.7887 68.6191 18.1068 69.5244C19.0224 69.882 19.9088 70.2281 20.6641 70.6256L10.743 87.8096C10.3879 88.4246 10.3941 89.1852 10.7594 89.7941C11.1246 90.4033 11.7947 90.7656 12.5019 90.7434L22.1801 90.4238L26.7422 98.9648C27.0783 99.5943 27.7379 100 28.4683 100C29.166 100 29.8131 99.6273 30.1627 99.0217L40.0353 81.9215C41.1187 82.298 42.2674 83.2182 43.4779 84.1883C45.3498 85.6885 47.4717 87.3885 49.9998 87.3885C52.5279 87.3885 54.6498 85.6885 56.5217 84.1883C57.7324 83.2182 58.8808 82.298 59.9642 81.9215L62.2367 85.8576C62.6424 86.5603 63.5389 86.7971 64.2377 86.3938C64.9383 85.9893 65.1783 85.0934 64.7738 84.3928L63.2754 81.7975C66.1523 82.1473 69.3088 83.0106 71.8523 81.5391C73.9887 80.3031 74.9246 77.9057 75.8301 75.5873C76.2465 74.5209 76.6474 73.4941 77.132 72.6678L85.8439 87.7574L77.3105 87.4758C76.5621 87.4482 75.8744 87.8473 75.5209 88.5096L71.4982 96.04L68.3967 90.6678C67.992 89.967 67.0963 89.7275 66.3957 90.1316C65.6951 90.5361 65.4551 91.432 65.8596 92.1326L69.8369 99.0217C70.1867 99.6275 70.8336 100 71.5312 100C72.2498 100 72.9156 99.6049 73.2572 98.965L77.8197 90.424L87.4976 90.7436C88.2066 90.7709 88.8752 90.4033 89.2404 89.7943C89.6057 89.1854 89.6119 88.4248 89.2568 87.8098L79.3357 70.626C80.091 70.2287 80.9773 69.8826 81.8928 69.525C84.2111 68.6195 86.6086 67.6834 87.8445 65.5473C89.0613 63.4439 88.6822 60.9197 88.3156 58.4787C88.059 56.7697 87.8164 55.1555 88.1474 53.9172C88.4574 52.7582 89.4469 51.5234 90.4943 50.216ZM28.5014 96.04L24.4789 88.5096C24.1252 87.8473 23.4387 87.4475 22.6885 87.4758L14.1557 87.7574L22.8676 72.668C23.3519 73.4943 23.7529 74.5211 24.1693 75.5875C25.0748 77.9059 26.0109 80.3033 28.1473 81.5393C30.6916 83.0111 33.8486 82.1473 36.7242 81.7977L28.5014 96.04ZM85.3174 53.1604C84.8289 54.9877 85.1287 56.9834 85.4187 58.9135C85.7238 60.9453 86.0123 62.8645 85.309 64.0799C84.5871 65.3277 82.7609 66.0408 80.8273 66.7957C75.9486 68.7014 75.0131 69.6268 73.1013 74.5219C72.3463 76.4553 71.6332 78.2814 70.3853 79.0033C69.1701 79.7068 67.251 79.4182 65.2193 79.1131C59.9023 78.3141 58.6584 78.7223 54.6898 81.9023C53.049 83.217 51.4992 84.459 50 84.459C48.5008 84.459 46.951 83.2172 45.3101 81.9023C41.3273 78.7109 40.0805 78.3162 34.7807 79.1131C32.749 79.4182 30.8299 79.7066 29.6144 79.0033C28.3666 78.2814 27.6535 76.4553 26.8984 74.5221C24.9926 69.6414 24.0713 68.7088 19.1723 66.7959C17.2389 66.0408 15.4127 65.3275 14.6908 64.0799C13.9877 62.8645 14.276 60.9455 14.5812 58.9139C14.8711 56.9838 15.1711 54.9879 14.6826 53.1605C14.2141 51.4068 12.9826 49.8703 11.792 48.3844C10.4773 46.7437 9.23534 45.1938 9.23534 43.6945C9.23534 42.1953 10.4771 40.6455 11.792 39.0045C12.9826 37.5186 14.2139 35.9818 14.6826 34.2285C15.1711 32.4012 14.8713 30.4053 14.5812 28.475C14.2762 26.4434 13.9877 24.5242 14.691 23.309C15.4129 22.0611 17.239 21.348 19.1724 20.593C20.9744 19.8893 22.8377 19.1617 24.1525 17.8467C25.4672 16.532 26.1949 14.6687 26.8986 12.8668C27.6537 10.9336 28.3668 9.10742 29.6146 8.38555C30.8299 7.68203 32.749 7.97031 34.7808 8.27578C36.7109 8.56602 38.7068 8.86582 40.5342 8.37734C42.2877 7.90859 43.8242 6.67734 45.3101 5.48672C46.951 4.17148 48.5008 2.92969 50 2.92969C51.4992 2.92969 53.049 4.17148 54.69 5.48633C56.176 6.67695 57.7125 7.90801 59.466 8.37695C61.2935 8.86523 63.2892 8.56582 65.2193 8.27559C67.2512 7.97051 69.1703 7.68223 70.3855 8.38516C71.6334 9.10723 72.3465 10.9334 73.1015 12.8668C73.8053 14.6687 74.533 16.532 75.8476 17.8469C77.1623 19.1613 79.0256 19.8891 80.8275 20.593C82.7609 21.3479 84.5871 22.0611 85.3092 23.3088C86.0123 24.5242 85.724 26.4434 85.4187 28.475C85.1289 30.4051 84.8289 32.401 85.3174 34.2283C85.7859 35.9818 87.0174 37.5184 88.208 39.0043C89.5226 40.6451 90.7646 42.1951 90.7646 43.6943C90.7646 45.1936 89.5228 46.7434 88.208 48.3842C87.0174 49.8701 85.7861 51.4066 85.3174 53.1604Z" fill="#2590DE"/>
<path d="M83.0056 42.2295H79.2478C79.1906 41.0756 79.0664 39.9255 78.8759 38.7953C78.7416 37.9976 77.9865 37.459 77.1881 37.5943C76.3902 37.7287 75.8525 38.4843 75.9869 39.2822C76.2308 40.7298 76.3545 42.2144 76.3545 43.6945C76.3545 58.2263 64.5318 70.0492 49.9998 70.0492C35.4678 70.0492 23.6451 58.2265 23.6451 43.6945C23.6451 29.1625 35.468 17.3396 50 17.3396C54.6271 17.3396 59.1658 18.5513 63.1773 20.8705C63.198 20.8824 63.2189 20.8939 63.24 20.9047C67.1322 23.1654 70.4347 26.4146 72.7635 30.4007C72.8023 30.4841 72.8443 30.5558 72.8941 30.6267C73.3595 31.442 73.7845 32.2873 74.166 33.1607C74.4896 33.9023 75.3531 34.2406 76.0945 33.9173C76.8359 33.5937 77.1746 32.7302 76.851 31.9888C76.6058 31.4271 76.3443 30.8759 76.0672 30.3355L79.3162 28.4595C80.0168 28.055 80.2568 27.1591 79.8523 26.4586C79.4478 25.758 78.5517 25.5181 77.8513 25.9224L74.6019 27.7984C72.326 24.2767 69.3441 21.324 65.8933 19.0953L67.7713 15.8425C68.1758 15.142 67.9357 14.2461 67.2351 13.8416C66.5343 13.4371 65.6386 13.6769 65.2342 14.3777L63.356 17.6306C59.7217 15.7681 55.6806 14.656 51.4648 14.4459V10.688C51.4648 9.87887 50.809 9.22321 50 9.22321C49.191 9.22321 48.5351 9.87887 48.5351 10.688V14.4459C44.2707 14.657 40.2433 15.7845 36.6465 17.6353L34.7656 14.3781C34.3611 13.6773 33.465 13.4377 32.7646 13.842C32.064 14.2464 31.824 15.1423 32.2285 15.8429L34.1117 19.1047C30.6351 21.3588 27.6644 24.3295 25.4103 27.806L22.1486 25.9228C21.448 25.5183 20.5521 25.7582 20.1476 26.4589C19.7432 27.1595 19.9832 28.0554 20.6838 28.4599L23.9412 30.3408C22.0904 33.9377 20.9629 37.965 20.7517 42.2295H16.9943C16.1853 42.2295 15.5295 42.8851 15.5295 43.6943C15.5295 44.5035 16.1853 45.1591 16.9943 45.1591H20.7519C20.9631 49.4236 22.0906 53.4509 23.9414 57.0478L20.684 58.9285C19.9834 59.333 19.7433 60.2289 20.1478 60.9295C20.5535 61.6322 21.45 61.8689 22.1488 61.4656L25.4105 59.5826C27.6646 63.0591 30.6353 66.0299 34.1119 68.284L32.2287 71.5457C31.8242 72.2463 32.0642 73.1422 32.7648 73.5466C33.4623 73.9492 34.3596 73.7142 34.7658 73.0105L36.6465 69.7531C40.2433 71.6039 44.2707 72.7314 48.5351 72.9425V76.7002C48.5351 77.5093 49.191 78.165 50 78.165C50.809 78.165 51.4648 77.5093 51.4648 76.7002V72.9425C55.7293 72.7314 59.7566 71.6039 63.3535 69.7531L65.2344 73.0103C65.64 73.7131 66.5365 73.9498 67.2353 73.5465C67.9359 73.142 68.176 72.2461 67.7715 71.5455L65.8883 68.2838C69.3648 66.0297 72.3355 63.059 74.5896 59.5824L77.8513 61.4654C78.5488 61.8679 79.4461 61.633 79.8523 60.9293C80.2568 60.2287 80.0168 59.3328 79.3162 58.9283L76.0588 57.0476C77.9095 53.4507 79.0371 49.4234 79.2482 45.1589H83.0058C83.8148 45.1589 84.4707 44.5033 84.4707 43.6941C84.4707 42.8849 83.8146 42.2295 83.0056 42.2295Z" fill="#2590DE"/>
<path d="M69.8742 37.1221C69.5143 36.0142 68.4899 35.2701 67.325 35.2701H56.0375L52.5494 24.5346C52.1895 23.4269 51.1651 22.6828 50.0002 22.6828C48.8354 22.6828 47.811 23.4271 47.451 24.5348L43.9629 35.2701H41.0781C40.2692 35.2701 39.6133 35.9258 39.6133 36.7349C39.6133 37.5441 40.2692 38.1998 41.0781 38.1998H44.144C45.3088 38.1998 46.3334 37.4553 46.6932 36.3476L50 26.1695L53.307 36.3474C53.667 37.4553 54.6914 38.1996 55.8565 38.1996H66.558L57.9002 44.4898C56.9578 45.1746 56.5666 46.3791 56.9266 47.4867L60.2336 57.6646L51.5756 51.3744C50.6332 50.6896 49.3668 50.6896 48.4246 51.3744L39.7666 57.6646L43.0736 47.4869C43.4336 46.3791 43.0424 45.1746 42.1 44.4898L33.4422 38.1996H34.242C35.051 38.1996 35.7068 37.5439 35.7068 36.7348C35.7068 35.9256 35.051 35.2699 34.242 35.2699H32.675C31.5102 35.2699 30.4858 36.0142 30.1258 37.1219C29.7658 38.2297 30.157 39.434 31.0994 40.1187L40.2313 46.7535L36.7432 57.4889C36.3834 58.5969 36.7748 59.8012 37.7172 60.4859C38.6615 61.1717 39.9277 61.1691 40.868 60.4857L50 53.8512L59.1319 60.4859C60.0742 61.1705 61.3404 61.1707 62.2828 60.4861C63.2252 59.8014 63.6166 58.5971 63.2567 57.489L59.7686 46.7537L68.9006 40.1189C69.843 39.4342 70.2344 38.2299 69.8742 37.1221Z" fill="#2590DE"/>
</g>
<defs>
<clipPath id="clip0">
<rect width="100" height="100" fill="white"/>
</clipPath>
</defs>
</svg>
