<svg width="100" height="100" viewBox="0 0 100 100" fill="none" xmlns="http://www.w3.org/2000/svg">
<g clip-path="url(#clip0)">
<path d="M6.19666 53.5167L12.465 54.4133C13.4338 59.1626 15.3079 63.681 17.985 67.7217L14.1967 72.7833C13.1872 74.1049 13.3119 75.9696 14.4883 77.145L19.5217 82.1783C20.1473 82.8033 20.9957 83.154 21.88 83.1533C22.5973 83.1573 23.2955 82.9228 23.865 82.4867L28.9417 78.6867C29.305 78.9267 29.6683 79.1267 30.0317 79.3533C30.0183 79.575 30 79.8 30 80.01C30 91.0557 38.9543 100.01 50 100.01C61.0457 100.01 70 91.0557 70 80.01C70 79.8 69.9817 79.575 69.9683 79.3533C70.3317 79.1333 70.695 78.9333 71.0583 78.6867L76.1167 82.4733C77.4382 83.4828 79.3029 83.3581 80.4783 82.1817L85.5117 77.1483C86.6845 75.9803 86.8148 74.1255 85.8167 72.805L82.015 67.725C84.6921 63.6843 86.5662 59.166 87.535 54.4167L93.8033 53.52C95.4433 53.2785 96.6604 51.8744 96.6667 50.2167V43.1167C96.6588 41.4602 95.4421 40.058 93.8033 39.8167L87.535 38.92C86.5662 34.1707 84.6921 29.6524 82.015 25.6117L85.8033 20.55C86.8128 19.2284 86.6881 17.3637 85.5117 16.1883L80.4783 11.155C79.3099 9.98284 77.4558 9.85263 76.135 10.85L71.055 14.6517C67.0143 11.9746 62.4959 10.1004 57.7467 9.13167L56.85 2.86333C56.6087 1.22457 55.2064 0.00786128 53.55 0H46.45C44.7936 0.00786128 43.3913 1.22457 43.15 2.86333L42.2533 9.13167C37.504 10.1004 32.9857 11.9746 28.945 14.6517L23.8833 10.8633C22.5615 9.85464 20.6974 9.97929 19.5217 11.155L14.4883 16.1883C13.3155 17.3564 13.1852 19.2111 14.1833 20.5317L17.985 25.6117C15.3079 29.6524 13.4338 34.1707 12.465 38.92L6.19666 39.8167C4.55789 40.058 3.34119 41.4602 3.33333 43.1167V50.2167C3.34119 51.8731 4.55789 53.2753 6.19666 53.5167ZM50 96.6667C40.7994 96.6566 33.3434 89.2006 33.3333 80C33.3408 79.5585 33.3781 79.1181 33.445 78.6817C33.445 78.6483 33.445 78.615 33.445 78.5817C34.64 70.485 44.885 53.895 50 46.6667C55.12 53.895 65.365 70.485 66.5517 78.5817C66.5517 78.615 66.5517 78.6483 66.56 78.6817C66.6252 79.1182 66.6609 79.5587 66.6667 80C66.6566 89.2006 59.2006 96.6566 50 96.6667ZM28.3333 46.6667C28.3112 36.6313 35.1833 27.894 44.9413 25.551C54.6994 23.208 64.7894 27.8725 69.3261 36.8239C73.8629 45.7752 71.6591 56.6706 64 63.155C60.5783 56.8161 56.8133 50.6686 52.7217 44.74C52.0993 43.8579 51.0871 43.3332 50.0075 43.3332C48.9279 43.3332 47.9157 43.8579 47.2933 44.74C43.1956 50.6676 39.4256 56.8152 36 63.155C31.1502 59.0491 28.3474 53.0211 28.3333 46.6667ZM6.66666 43.1167L14.1183 42.05C14.8345 41.9475 15.4028 41.3947 15.525 40.6817C16.3953 35.5831 18.4009 30.7455 21.3933 26.5267C21.8089 25.9366 21.7974 25.1461 21.365 24.5683L16.8433 18.545L21.8683 13.5167L27.9017 18.0333C28.4795 18.4658 29.2699 18.4772 29.86 18.0617C34.0788 15.0692 38.9164 13.0636 44.015 12.1933C44.7281 12.0711 45.2809 11.5028 45.3833 10.7867L46.45 3.33333H53.55L54.6167 10.785C54.7191 11.5012 55.2719 12.0695 55.985 12.1917C61.0836 13.062 65.9212 15.0675 70.14 18.06C70.7301 18.4756 71.5205 18.4641 72.0983 18.0317L78.1217 13.51L83.15 18.5333L78.6333 24.5667C78.2009 25.1445 78.1894 25.9349 78.605 26.525C81.5975 30.7438 83.603 35.5814 84.4733 40.68C84.5955 41.3931 85.1638 41.9459 85.88 42.0483L93.3333 43.1167V50.2167L85.8817 51.2833C85.1655 51.3858 84.5972 51.9386 84.475 52.6517C83.6047 57.7502 81.5991 62.5879 78.6067 66.8067C78.1911 67.3967 78.2025 68.1872 78.635 68.765L83.1567 74.7883L78.1317 79.8167L72.0983 75.3C71.5177 74.865 70.7224 74.8556 70.1317 75.2767C69.8717 75.4617 69.6117 75.6283 69.35 75.8033C68.3834 72.4834 67.106 69.2619 65.535 66.1817C73.8687 59.5721 77.1077 48.4132 73.6081 38.3689C70.1085 28.3245 60.6365 21.5943 50 21.5943C39.3634 21.5943 29.8915 28.3245 26.3919 38.3689C22.8923 48.4132 26.1313 59.5721 34.465 66.1817C32.8939 69.2619 31.6166 72.4834 30.65 75.8033C30.3883 75.6367 30.1283 75.47 29.8683 75.2767C29.2776 74.8556 28.4823 74.865 27.9017 75.3L21.8783 79.8217L16.85 74.7983L21.3667 68.765C21.7991 68.1872 21.8105 67.3967 21.395 66.8067C18.4025 62.5879 16.397 57.7502 15.5267 52.6517C15.4045 51.9386 14.8362 51.3858 14.12 51.2833L6.66666 50.2167V43.1167Z" fill="#2590DE"/>
<path d="M50 90C44.4794 89.9945 40.0055 85.5206 40 80C40 79.0796 39.2538 78.3334 38.3333 78.3334C37.4128 78.3334 36.6667 79.0796 36.6667 80C36.6749 87.3604 42.6396 93.3251 50 93.3334C50.9205 93.3334 51.6667 92.5872 51.6667 91.6667C51.6667 90.7462 50.9205 90 50 90Z" fill="#2590DE"/>
<path d="M20 48.3333C20.9205 48.3333 21.6667 47.5871 21.6667 46.6667C21.6146 33.5038 30.686 22.06 43.5133 19.1067C44.4059 18.8947 44.9594 18.0012 44.7516 17.1076C44.5438 16.214 43.6529 15.6564 42.7583 15.86C28.417 19.1578 18.2738 31.9511 18.3333 46.6667C18.3333 47.1087 18.5089 47.5326 18.8215 47.8452C19.134 48.1577 19.558 48.3333 20 48.3333Z" fill="#2590DE"/>
<path d="M50 18.3333C50.9205 18.3333 51.6667 17.5871 51.6667 16.6667C51.6667 15.7462 50.9205 15 50 15C49.0795 15 48.3333 15.7462 48.3333 16.6667C48.3333 17.5871 49.0795 18.3333 50 18.3333Z" fill="#2590DE"/>
</g>
<defs>
<clipPath id="clip0">
<rect width="100" height="100" fill="white"/>
</clipPath>
</defs>
</svg>
