<svg width="100" height="100" viewBox="0 0 100 100" fill="none" xmlns="http://www.w3.org/2000/svg">
<g clip-path="url(#clip0)">
<path d="M17.588 77.3338C16.188 77.3338 14.8422 77.6833 13.6482 78.3394C7.35855 70.2766 3.90625 60.2608 3.90625 50C3.90625 24.5834 24.5834 3.90625 50 3.90625C53.0899 3.90625 56.1783 4.21371 59.1797 4.82025C60.2356 5.03387 61.2671 4.35028 61.4807 3.29285C61.6943 2.23541 61.0107 1.20544 59.9533 0.991058C56.6978 0.333405 53.3493 0 50 0C36.6447 0 24.0883 5.20096 14.6446 14.6446C5.20096 24.0883 0 36.6447 0 50C0 61.2343 3.8147 72.1977 10.7597 80.9868C9.86557 82.3227 9.38492 83.8928 9.38492 85.537C9.38492 87.7281 10.2386 89.7881 11.7882 91.3368C13.3369 92.8864 15.3969 93.7401 17.588 93.7401C19.7792 93.7401 21.8391 92.8864 23.3887 91.3368C24.9382 89.7881 25.7912 87.7274 25.7912 85.5362C25.7912 83.3458 24.9382 81.2851 23.3887 79.7363C21.8391 78.1868 19.7792 77.3338 17.588 77.3338ZM20.6261 88.575C19.8151 89.3867 18.7355 89.8338 17.588 89.8338C16.4406 89.8338 15.3618 89.3867 14.55 88.575C13.7382 87.7632 13.2912 86.6844 13.2912 85.537C13.2912 84.3887 13.7382 83.3099 14.55 82.4982C15.361 81.6864 16.4406 81.2401 17.588 81.2401C18.7355 81.2401 19.8143 81.6872 20.6261 82.4982C21.4378 83.3099 21.8849 84.3887 21.8849 85.537C21.8849 86.6844 21.4378 87.7632 20.6261 88.575Z" fill="#2590DE"/>
<path d="M89.2388 19.0109C91.362 15.8256 91.021 11.4708 88.2126 8.66238C86.6631 7.11362 84.6031 6.25989 82.412 6.25989C80.2208 6.25989 78.1609 7.11362 76.6113 8.66238C75.0618 10.2119 74.2088 12.2719 74.2088 14.463C74.2088 16.6542 75.0618 18.7141 76.6113 20.2636C78.1609 21.8132 80.2208 22.6661 82.412 22.6661C83.812 22.6661 85.1578 22.3167 86.3518 21.6606C92.6415 29.7241 96.0938 39.7392 96.0938 50C96.0938 75.4165 75.4166 96.0937 50 96.0937C46.9406 96.0937 43.8812 95.7924 40.9081 95.1973C39.8506 94.9859 38.8214 95.6718 38.6093 96.7292C38.398 97.7874 39.0839 98.8159 40.1413 99.028C43.3662 99.6727 46.6835 100 50 100C63.3553 100 75.9117 94.799 85.3554 85.3553C94.799 75.9117 100 63.3552 100 50C100 38.7649 96.1846 27.8007 89.2388 19.0109ZM79.3739 17.5018C78.5622 16.69 78.1151 15.6112 78.1151 14.463C78.1151 13.3156 78.5622 12.2368 79.3739 11.425C80.1849 10.6132 81.2645 10.1661 82.412 10.1661C83.5594 10.1661 84.639 10.6132 85.4508 11.425C87.1254 13.1004 87.1254 15.8264 85.4508 17.5018C84.639 18.3128 83.5594 18.7599 82.412 18.7599C81.2637 18.7599 80.1849 18.3128 79.3739 17.5018Z" fill="#2590DE"/>
<path d="M41.9403 83.5938C41.9403 84.6725 42.8154 85.5469 43.8934 85.5469H56.1058C57.1846 85.5469 58.0589 84.6725 58.0589 83.5938V79.8073C60.627 79.1161 63.0821 78.0983 65.3893 76.7693L68.0626 79.4426C68.4288 79.8088 68.9255 80.0148 69.4443 80.0148C69.9615 80.0148 70.459 79.8088 70.8252 79.4418L79.4571 70.8038C80.2193 70.0409 80.2193 68.8042 79.4571 68.042L76.7868 65.3717C78.1158 63.0646 79.1336 60.6094 79.8248 58.0414H83.5968C84.6756 58.0414 85.5499 57.1671 85.5499 56.0883V43.8759C85.5499 42.7971 84.6756 41.9228 83.5968 41.9228H79.8241C79.1328 39.3555 78.1158 36.9003 76.7868 34.5932L79.4426 31.9374C79.8088 31.5712 80.0148 31.0738 80.0148 30.5557C80.014 30.0377 79.808 29.5403 79.4418 29.174L70.8031 20.5421C70.0409 19.78 68.8042 19.78 68.0412 20.5429L65.3893 23.1956C63.0821 21.8666 60.627 20.8488 58.0589 20.1576V16.4062C58.0589 15.3275 57.1846 14.4531 56.1058 14.4531H43.8934C42.8154 14.4531 41.9403 15.3275 41.9403 16.4062V20.1584C39.373 20.8488 36.9179 21.8666 34.6108 23.1956L31.958 20.5429C31.1958 19.7807 29.9591 19.78 29.1962 20.5421L20.5582 29.1748C20.1912 29.541 19.9852 30.0377 19.9852 30.5557C19.9852 31.0738 20.1912 31.5712 20.5574 31.9374L23.2132 34.5932C21.8842 36.9003 20.8664 39.3547 20.1752 41.9228H16.4101C15.3313 41.9228 14.4569 42.7971 14.4569 43.8751L14.4501 56.0875C14.4493 56.6055 14.6553 57.103 15.0215 57.4692C15.3877 57.8354 15.8844 58.0414 16.4032 58.0414H20.1752C20.8664 60.6094 21.8842 63.0646 23.2132 65.3717L20.5429 68.042C19.7807 68.8042 19.78 70.0409 20.5429 70.8038L29.1748 79.4418C29.541 79.808 30.0377 80.0148 30.5557 80.0148H30.5565C31.0745 80.0148 31.5712 79.8088 31.9374 79.4426L34.61 76.7693C36.9179 78.0983 39.373 79.1161 41.9403 79.8073V83.5938ZM35.376 72.6616C34.6031 72.1619 33.5861 72.2702 32.9346 72.921L30.5565 75.2991L24.6857 69.4237L27.0615 67.0471C27.7123 66.3963 27.8206 65.3793 27.3209 64.6065C25.5501 61.866 24.305 58.8623 23.6214 55.6778C23.4276 54.7783 22.6326 54.1351 21.7117 54.1351H18.3571L18.3617 45.829H21.7117C22.6326 45.829 23.4276 45.1866 23.6214 44.2863C24.305 41.1026 25.5501 38.0989 27.3209 35.3584C27.8206 34.5856 27.7123 33.5686 27.0615 32.9178L24.7009 30.5565L30.5763 24.6857L32.9346 27.0447C33.5861 27.6955 34.6024 27.803 35.376 27.3041C38.1157 25.5333 41.1194 24.2882 44.3039 23.6046C45.2034 23.4108 45.8466 22.6151 45.8466 21.6949V18.3594H54.1527V21.6942C54.1527 22.6151 54.7951 23.4108 55.6953 23.6038C58.8791 24.2882 61.8835 25.5325 64.6233 27.3033C65.3961 27.803 66.4131 27.6955 67.0639 27.0439L69.4229 24.6857L75.2983 30.5565L72.9378 32.917C72.2862 33.5686 72.1786 34.5856 72.6784 35.3584C74.4492 38.0989 75.6935 41.1026 76.3779 44.2863C76.5709 45.1866 77.3666 45.829 78.2875 45.829H81.6437V54.1351H78.2875C77.3666 54.1351 76.5717 54.7783 76.3779 55.6778C75.6943 58.8615 74.4492 61.866 72.6784 64.6057C72.1786 65.3793 72.287 66.3963 72.9378 67.0471L75.3136 69.4229L69.4427 75.2983L67.0647 72.921C66.4131 72.2694 65.3961 72.1619 64.6233 72.6616C61.8828 74.4324 58.8791 75.6767 55.6953 76.3611C54.7951 76.5549 54.1527 77.3499 54.1527 78.2707V81.6406H45.8466V78.2707C45.8466 77.3506 45.2034 76.5549 44.3039 76.3611C41.1202 75.6775 38.1165 74.4324 35.376 72.6616Z" fill="#2590DE"/>
<path d="M66.1385 50C66.1385 41.1011 58.8989 33.8616 50 33.8616C41.1011 33.8616 33.8615 41.1011 33.8615 50C33.8615 58.899 41.1011 66.1385 50 66.1385C58.8989 66.1385 66.1385 58.899 66.1385 50ZM37.7678 50C37.7678 43.2549 43.2549 37.7678 50 37.7678C56.7451 37.7678 62.2322 43.2556 62.2322 50C62.2322 56.7444 56.7451 62.2322 50 62.2322C43.2549 62.2322 37.7678 56.7452 37.7678 50Z" fill="#2590DE"/>
<path d="M67.984 7.38681C68.4982 7.38681 69.0018 7.17776 69.3649 6.81461C69.7281 6.44916 69.9371 5.94562 69.9371 5.4314C69.9371 4.92023 69.7289 4.41592 69.3649 4.05048C69.0018 3.68732 68.4982 3.47827 67.984 3.47827C67.4683 3.47827 66.967 3.68732 66.6039 4.05048C66.2399 4.41592 66.0309 4.91794 66.0309 5.4314C66.0309 5.94714 66.2399 6.44916 66.6039 6.81461C66.967 7.17776 67.4683 7.38681 67.984 7.38681Z" fill="#2590DE"/>
<path d="M32.1014 92.6483C31.588 92.6483 31.0837 92.8574 30.7205 93.2205C30.3574 93.5837 30.1483 94.088 30.1483 94.6014C30.1483 95.1172 30.3574 95.6192 30.7205 95.9824C31.0837 96.3455 31.588 96.5546 32.1014 96.5546C32.6149 96.5546 33.1192 96.3455 33.4824 95.9824C33.8455 95.6192 34.0546 95.1149 34.0546 94.6014C34.0546 94.088 33.8455 93.5837 33.4824 93.2205C33.1192 92.8574 32.6149 92.6483 32.1014 92.6483Z" fill="#2590DE"/>
</g>
<defs>
<clipPath id="clip0">
<rect width="100" height="100" fill="white"/>
</clipPath>
</defs>
</svg>
